<svg width="333" height="68" viewBox="0 0 333 68" fill="none" xmlns="http://www.w3.org/2000/svg">
<path d="M38.4884 16.8846C38.4893 17.5106 38.6342 18.1281 38.9119 18.6892C39.1896 19.2503 39.5926 19.74 40.0899 20.1204C40.5871 20.5008 41.1651 20.7618 41.7793 20.8831C42.3935 21.0044 43.0274 20.9827 43.6319 20.8199C44.2364 20.657 44.7953 20.3573 45.2655 19.9438C45.7356 19.5304 46.1043 19.0144 46.3431 18.4356C46.5819 17.8569 46.6844 17.231 46.6426 16.6064C46.6009 15.9817 46.416 15.375 46.1022 14.8333L48.8289 12.1065H67.899V24.2718H54.9535C54.6989 23.3142 54.1046 22.4818 53.2815 21.9301C52.4584 21.3784 51.4626 21.1449 50.48 21.2733C49.4975 21.4017 48.5952 21.8831 47.9414 22.6278C47.2877 23.3725 46.9272 24.3296 46.9272 25.3206C46.9272 26.3115 47.2877 27.2686 47.9414 28.0133C48.5952 28.758 49.4975 29.2394 50.48 29.3678C51.4626 29.4962 52.4584 29.2628 53.2815 28.711C54.1046 28.1593 54.6989 27.327 54.9535 26.3693H67.8948V67.899H57.8564V48.3675C57.8564 48.0892 57.7463 47.8223 57.5502 47.625L54.534 44.6172C54.898 43.9965 55.0892 43.2897 55.0877 42.5701C55.087 41.6724 54.7901 40.8001 54.243 40.0884C53.6959 39.3767 52.9293 38.8655 52.062 38.634C51.1947 38.4024 50.2753 38.4635 49.4463 38.8079C48.6173 39.1522 47.9251 39.7604 47.477 40.5383C47.029 41.3161 46.8502 42.2201 46.9683 43.1099C47.0864 43.9998 47.4948 44.8258 48.1302 45.4598C48.7657 46.0939 49.5926 46.5005 50.4827 46.6166C51.3728 46.7328 52.2763 46.552 53.0532 46.1022L55.7505 48.7995V67.899H43.6272V54.9535C44.5849 54.6989 45.4172 54.1046 45.9689 53.2815C46.5207 52.4584 46.7541 51.4626 46.6257 50.48C46.4973 49.4975 46.0159 48.5952 45.2712 47.9414C44.5265 47.2877 43.5694 46.9272 42.5785 46.9272C41.5875 46.9272 40.6305 47.2877 39.8858 47.9414C39.1411 48.5952 38.6596 49.4975 38.5312 50.48C38.4028 51.4626 38.6363 52.4584 39.188 53.2815C39.7397 54.1046 40.5721 54.6989 41.5297 54.9535V67.8948H0V57.8899H19.5148C19.793 57.89 20.06 57.7799 20.2573 57.5837L23.2776 54.5634C24.1258 55.0674 25.1283 55.2457 26.0982 55.0651C27.0682 54.8845 27.9393 54.3573 28.5493 53.5819C29.1592 52.8064 29.4663 51.8355 29.4132 50.8503C29.3601 49.8651 28.9506 48.9329 28.2609 48.2274C27.5712 47.5219 26.6485 47.0913 25.6647 47.0159C24.681 46.9406 23.7034 47.2255 22.9143 47.8177C22.1252 48.4099 21.5784 49.2689 21.3759 50.2345C21.1734 51.2001 21.3289 52.2064 21.8136 53.0658L19.0827 55.7925H0V43.6272H12.9413C13.1959 44.5849 13.7902 45.4172 14.6134 45.9689C15.4365 46.5207 16.4322 46.7541 17.4148 46.6257C18.3974 46.4973 19.2997 46.0159 19.9534 45.2712C20.6071 44.5265 20.9676 43.5694 20.9676 42.5785C20.9676 41.5875 20.6071 40.6305 19.9534 39.8858C19.2997 39.1411 18.3974 38.6596 17.4148 38.5312C16.4322 38.4028 15.4365 38.6363 14.6134 39.188C13.7902 39.7397 13.1959 40.5721 12.9413 41.5297H0V0H10.0217V19.5148C10.022 19.6529 10.0496 19.7896 10.1028 19.917C10.1561 20.0444 10.234 20.1601 10.3321 20.2573L13.3524 23.2818C12.85 24.1351 12.6753 25.1421 12.8609 26.1148C13.0465 27.0875 13.5797 27.9594 14.361 28.5677C15.1423 29.1761 16.1183 29.4794 17.1068 29.4209C18.0953 29.3625 19.0287 28.9463 19.7329 28.2501C20.4371 27.5539 20.8638 26.6252 20.9335 25.6375C21.0032 24.6497 20.711 23.6703 20.1116 22.8822C19.5121 22.094 18.6463 21.5509 17.6758 21.3543C16.7053 21.1577 15.6964 21.3209 14.8374 21.8136L12.1191 19.0995V0H24.2844V12.9413C23.3256 13.196 22.4922 13.7907 21.9397 14.6147C21.3871 15.4386 21.1533 16.4354 21.2817 17.4191C21.4101 18.4028 21.892 19.3062 22.6374 19.9607C23.3829 20.6152 24.3411 20.9762 25.3331 20.9762C26.3252 20.9762 27.2833 20.6152 28.0288 19.9607C28.7743 19.3062 29.2562 18.4028 29.3846 17.4191C29.513 16.4354 29.2791 15.4386 28.7266 14.6147C28.1741 13.7907 27.3407 13.196 26.3819 12.9413V0H67.9116V10.0091H48.3968C48.1188 10.01 47.8522 10.1199 47.6543 10.3153L44.6172 13.3524C43.9968 12.9927 43.2925 12.8029 42.5753 12.802C41.8581 12.801 41.1534 12.9891 40.532 13.3472C39.9106 13.7053 39.3946 14.2208 39.0358 14.8418C38.6771 15.4628 38.4883 16.1674 38.4884 16.8846Z" fill="url(#paint0_linear_50_12)"/>
<path d="M82.6934 20.4062H87.1582L93.7324 39.1973L100.307 20.4062H104.771L95.5254 46H91.9395L82.6934 20.4062ZM80.2852 20.4062H84.7324L85.541 38.7227V46H80.2852V20.4062ZM102.732 20.4062H107.197V46H101.924V38.7227L102.732 20.4062ZM110.695 36.6836V36.3145C110.695 34.9199 110.895 33.6367 111.293 32.4648C111.691 31.2812 112.271 30.2559 113.033 29.3887C113.795 28.5215 114.732 27.8477 115.846 27.3672C116.959 26.875 118.236 26.6289 119.678 26.6289C121.119 26.6289 122.402 26.875 123.527 27.3672C124.652 27.8477 125.596 28.5215 126.357 29.3887C127.131 30.2559 127.717 31.2812 128.115 32.4648C128.514 33.6367 128.713 34.9199 128.713 36.3145V36.6836C128.713 38.0664 128.514 39.3496 128.115 40.5332C127.717 41.7051 127.131 42.7305 126.357 43.6094C125.596 44.4766 124.658 45.1504 123.545 45.6309C122.432 46.1113 121.154 46.3516 119.713 46.3516C118.271 46.3516 116.988 46.1113 115.863 45.6309C114.75 45.1504 113.807 44.4766 113.033 43.6094C112.271 42.7305 111.691 41.7051 111.293 40.5332C110.895 39.3496 110.695 38.0664 110.695 36.6836ZM115.758 36.3145V36.6836C115.758 37.4805 115.828 38.2246 115.969 38.916C116.109 39.6074 116.332 40.2168 116.637 40.7441C116.953 41.2598 117.363 41.6641 117.867 41.957C118.371 42.25 118.986 42.3965 119.713 42.3965C120.416 42.3965 121.02 42.25 121.523 41.957C122.027 41.6641 122.432 41.2598 122.736 40.7441C123.041 40.2168 123.264 39.6074 123.404 38.916C123.557 38.2246 123.633 37.4805 123.633 36.6836V36.3145C123.633 35.541 123.557 34.8145 123.404 34.1348C123.264 33.4434 123.035 32.834 122.719 32.3066C122.414 31.7676 122.01 31.3457 121.506 31.041C121.002 30.7363 120.393 30.584 119.678 30.584C118.963 30.584 118.354 30.7363 117.85 31.041C117.357 31.3457 116.953 31.7676 116.637 32.3066C116.332 32.834 116.109 33.4434 115.969 34.1348C115.828 34.8145 115.758 35.541 115.758 36.3145ZM136.869 38.9336L143.25 26.9805H148.312V46H143.25V34.0293L136.869 46H131.807V26.9805H136.869V38.9336ZM142.67 19.334H146.273C146.273 20.3418 146.021 21.2383 145.518 22.0234C145.025 22.7969 144.322 23.4062 143.408 23.8516C142.494 24.2852 141.416 24.502 140.174 24.502C138.287 24.502 136.793 24.0215 135.691 23.0605C134.602 22.0996 134.057 20.8574 134.057 19.334H137.643C137.643 19.9434 137.83 20.4883 138.205 20.9688C138.592 21.4492 139.248 21.6895 140.174 21.6895C141.088 21.6895 141.732 21.4492 142.107 20.9688C142.482 20.4883 142.67 19.9434 142.67 19.334ZM174.205 34.6621V38.5996H164.537V34.6621H174.205ZM166.225 26.9805V46H161.162V26.9805H166.225ZM177.633 26.9805V46H172.553V26.9805H177.633ZM191.836 41.7109V33.2383C191.836 32.6289 191.736 32.1074 191.537 31.6738C191.338 31.2285 191.027 30.8828 190.605 30.6367C190.195 30.3906 189.662 30.2676 189.006 30.2676C188.443 30.2676 187.957 30.3672 187.547 30.5664C187.137 30.7539 186.82 31.0293 186.598 31.3926C186.375 31.7441 186.264 32.1602 186.264 32.6406H181.201C181.201 31.832 181.389 31.0645 181.764 30.3379C182.139 29.6113 182.684 28.9727 183.398 28.4219C184.113 27.8594 184.963 27.4199 185.947 27.1035C186.943 26.7871 188.057 26.6289 189.287 26.6289C190.764 26.6289 192.076 26.875 193.225 27.3672C194.373 27.8594 195.275 28.5977 195.932 29.582C196.6 30.5664 196.934 31.7969 196.934 33.2734V41.4121C196.934 42.4551 196.998 43.3105 197.127 43.9785C197.256 44.6348 197.443 45.209 197.689 45.7012V46H192.574C192.328 45.4844 192.141 44.8398 192.012 44.0664C191.895 43.2812 191.836 42.4961 191.836 41.7109ZM192.504 34.416L192.539 37.2812H189.709C189.041 37.2812 188.461 37.3574 187.969 37.5098C187.477 37.6621 187.072 37.8789 186.756 38.1602C186.439 38.4297 186.205 38.7461 186.053 39.1094C185.912 39.4727 185.842 39.8711 185.842 40.3047C185.842 40.7383 185.941 41.1309 186.141 41.4824C186.34 41.8223 186.627 42.0918 187.002 42.291C187.377 42.4785 187.816 42.5723 188.32 42.5723C189.082 42.5723 189.744 42.4199 190.307 42.1152C190.869 41.8105 191.303 41.4355 191.607 40.9902C191.924 40.5449 192.088 40.123 192.1 39.7246L193.436 41.8691C193.248 42.3496 192.99 42.8477 192.662 43.3633C192.346 43.8789 191.941 44.3652 191.449 44.8223C190.957 45.2676 190.365 45.6367 189.674 45.9297C188.982 46.2109 188.162 46.3516 187.213 46.3516C186.006 46.3516 184.91 46.1113 183.926 45.6309C182.953 45.1387 182.18 44.4648 181.605 43.6094C181.043 42.7422 180.762 41.7578 180.762 40.6562C180.762 39.6602 180.949 38.7754 181.324 38.002C181.699 37.2285 182.25 36.5781 182.977 36.0508C183.715 35.5117 184.635 35.1074 185.736 34.8379C186.838 34.5566 188.115 34.416 189.568 34.416H192.504ZM210.311 38.0547H204.352L204.316 34.7324H209.238C209.895 34.7324 210.428 34.668 210.838 34.5391C211.248 34.3984 211.547 34.1934 211.734 33.9238C211.934 33.6426 212.033 33.3027 212.033 32.9043C212.033 32.5527 211.969 32.2539 211.84 32.0078C211.723 31.75 211.541 31.5391 211.295 31.375C211.049 31.2109 210.738 31.0938 210.363 31.0234C210 30.9414 209.572 30.9004 209.08 30.9004H206.232V46H201.17V26.9805H209.08C210.322 26.9805 211.436 27.0918 212.42 27.3145C213.404 27.5254 214.242 27.8477 214.934 28.2812C215.637 28.7148 216.17 29.2656 216.533 29.9336C216.908 30.5898 217.096 31.3691 217.096 32.2715C217.096 32.8574 216.961 33.4082 216.691 33.9238C216.434 34.4395 216.047 34.8965 215.531 35.2949C215.016 35.6934 214.377 36.0215 213.615 36.2793C212.865 36.5254 211.998 36.6777 211.014 36.7363L210.311 38.0547ZM210.311 46H203.104L204.844 42.0801H210.311C210.932 42.0801 211.441 42.0039 211.84 41.8516C212.238 41.6992 212.531 41.4766 212.719 41.1836C212.918 40.8789 213.018 40.5156 213.018 40.0938C213.018 39.6836 212.93 39.3262 212.754 39.0215C212.578 38.7168 212.291 38.4824 211.893 38.3184C211.506 38.1426 210.979 38.0547 210.311 38.0547H205.582L205.617 34.7324H210.996L212.227 36.0684C213.562 36.1504 214.664 36.4023 215.531 36.8242C216.398 37.2461 217.037 37.7852 217.447 38.4414C217.869 39.0859 218.08 39.7949 218.08 40.5684C218.08 41.4707 217.91 42.2617 217.57 42.9414C217.23 43.6211 216.727 44.1895 216.059 44.6465C215.402 45.0918 214.594 45.4316 213.633 45.666C212.672 45.8887 211.564 46 210.311 46ZM226.236 38.9336L232.617 26.9805H237.68V46H232.617V34.0293L226.236 46H221.174V26.9805H226.236V38.9336ZM254.52 26.9805V30.9531H246.609V46H241.547V26.9805H254.52ZM266.965 41.7109V33.2383C266.965 32.6289 266.865 32.1074 266.666 31.6738C266.467 31.2285 266.156 30.8828 265.734 30.6367C265.324 30.3906 264.791 30.2676 264.135 30.2676C263.572 30.2676 263.086 30.3672 262.676 30.5664C262.266 30.7539 261.949 31.0293 261.727 31.3926C261.504 31.7441 261.393 32.1602 261.393 32.6406H256.33C256.33 31.832 256.518 31.0645 256.893 30.3379C257.268 29.6113 257.812 28.9727 258.527 28.4219C259.242 27.8594 260.092 27.4199 261.076 27.1035C262.072 26.7871 263.186 26.6289 264.416 26.6289C265.893 26.6289 267.205 26.875 268.354 27.3672C269.502 27.8594 270.404 28.5977 271.061 29.582C271.729 30.5664 272.062 31.7969 272.062 33.2734V41.4121C272.062 42.4551 272.127 43.3105 272.256 43.9785C272.385 44.6348 272.572 45.209 272.818 45.7012V46H267.703C267.457 45.4844 267.27 44.8398 267.141 44.0664C267.023 43.2812 266.965 42.4961 266.965 41.7109ZM267.633 34.416L267.668 37.2812H264.838C264.17 37.2812 263.59 37.3574 263.098 37.5098C262.605 37.6621 262.201 37.8789 261.885 38.1602C261.568 38.4297 261.334 38.7461 261.182 39.1094C261.041 39.4727 260.971 39.8711 260.971 40.3047C260.971 40.7383 261.07 41.1309 261.27 41.4824C261.469 41.8223 261.756 42.0918 262.131 42.291C262.506 42.4785 262.945 42.5723 263.449 42.5723C264.211 42.5723 264.873 42.4199 265.436 42.1152C265.998 41.8105 266.432 41.4355 266.736 40.9902C267.053 40.5449 267.217 40.123 267.229 39.7246L268.564 41.8691C268.377 42.3496 268.119 42.8477 267.791 43.3633C267.475 43.8789 267.07 44.3652 266.578 44.8223C266.086 45.2676 265.494 45.6367 264.803 45.9297C264.111 46.2109 263.291 46.3516 262.342 46.3516C261.135 46.3516 260.039 46.1113 259.055 45.6309C258.082 45.1387 257.309 44.4648 256.734 43.6094C256.172 42.7422 255.891 41.7578 255.891 40.6562C255.891 39.6602 256.078 38.7754 256.453 38.002C256.828 37.2285 257.379 36.5781 258.105 36.0508C258.844 35.5117 259.764 35.1074 260.865 34.8379C261.967 34.5566 263.244 34.416 264.697 34.416H267.633ZM285.369 26.9805V46H280.289V26.9805H285.369ZM291.486 26.9805V30.9004H274.26V26.9805H291.486ZM292.664 36.6836V36.3145C292.664 34.9199 292.863 33.6367 293.262 32.4648C293.66 31.2812 294.24 30.2559 295.002 29.3887C295.764 28.5215 296.701 27.8477 297.814 27.3672C298.928 26.875 300.205 26.6289 301.646 26.6289C303.088 26.6289 304.371 26.875 305.496 27.3672C306.621 27.8477 307.564 28.5215 308.326 29.3887C309.1 30.2559 309.686 31.2812 310.084 32.4648C310.482 33.6367 310.682 34.9199 310.682 36.3145V36.6836C310.682 38.0664 310.482 39.3496 310.084 40.5332C309.686 41.7051 309.1 42.7305 308.326 43.6094C307.564 44.4766 306.627 45.1504 305.514 45.6309C304.4 46.1113 303.123 46.3516 301.682 46.3516C300.24 46.3516 298.957 46.1113 297.832 45.6309C296.719 45.1504 295.775 44.4766 295.002 43.6094C294.24 42.7305 293.66 41.7051 293.262 40.5332C292.863 39.3496 292.664 38.0664 292.664 36.6836ZM297.727 36.3145V36.6836C297.727 37.4805 297.797 38.2246 297.938 38.916C298.078 39.6074 298.301 40.2168 298.605 40.7441C298.922 41.2598 299.332 41.6641 299.836 41.957C300.34 42.25 300.955 42.3965 301.682 42.3965C302.385 42.3965 302.988 42.25 303.492 41.957C303.996 41.6641 304.4 41.2598 304.705 40.7441C305.01 40.2168 305.232 39.6074 305.373 38.916C305.525 38.2246 305.602 37.4805 305.602 36.6836V36.3145C305.602 35.541 305.525 34.8145 305.373 34.1348C305.232 33.4434 305.004 32.834 304.688 32.3066C304.383 31.7676 303.979 31.3457 303.475 31.041C302.971 30.7363 302.361 30.584 301.646 30.584C300.932 30.584 300.322 30.7363 299.818 31.041C299.326 31.3457 298.922 31.7676 298.605 32.3066C298.301 32.834 298.078 33.4434 297.938 34.1348C297.797 34.8145 297.727 35.541 297.727 36.3145ZM318.855 30.6367V53.3125H313.793V26.9805H318.486L318.855 30.6367ZM330.896 36.2793V36.6484C330.896 38.0312 330.732 39.3145 330.404 40.498C330.088 41.6816 329.619 42.7129 328.998 43.5918C328.377 44.459 327.604 45.1387 326.678 45.6309C325.764 46.1113 324.709 46.3516 323.514 46.3516C322.354 46.3516 321.346 46.1172 320.49 45.6484C319.635 45.1797 318.914 44.5234 318.328 43.6797C317.754 42.8242 317.291 41.834 316.939 40.709C316.588 39.584 316.318 38.377 316.131 37.0879V36.1211C316.318 34.7383 316.588 33.4727 316.939 32.3242C317.291 31.1641 317.754 30.1621 318.328 29.3184C318.914 28.4629 319.629 27.8008 320.473 27.332C321.328 26.8633 322.33 26.6289 323.479 26.6289C324.686 26.6289 325.746 26.8574 326.66 27.3145C327.586 27.7715 328.359 28.4277 328.98 29.2832C329.613 30.1387 330.088 31.1582 330.404 32.3418C330.732 33.5254 330.896 34.8379 330.896 36.2793ZM325.816 36.6484V36.2793C325.816 35.4707 325.746 34.7266 325.605 34.0469C325.477 33.3555 325.266 32.752 324.973 32.2363C324.691 31.7207 324.316 31.3223 323.848 31.041C323.391 30.748 322.834 30.6016 322.178 30.6016C321.486 30.6016 320.895 30.7129 320.402 30.9355C319.922 31.1582 319.529 31.4805 319.225 31.9023C318.92 32.3242 318.691 32.8281 318.539 33.4141C318.387 34 318.293 34.6621 318.258 35.4004V37.8438C318.316 38.7109 318.48 39.4902 318.75 40.1816C319.02 40.8613 319.436 41.4004 319.998 41.7988C320.561 42.1973 321.299 42.3965 322.213 42.3965C322.881 42.3965 323.443 42.25 323.9 41.957C324.357 41.6523 324.727 41.2363 325.008 40.709C325.301 40.1816 325.506 39.5723 325.623 38.8809C325.752 38.1895 325.816 37.4453 325.816 36.6484Z" fill="black"/>
<defs>
<linearGradient id="paint0_linear_50_12" x1="0" y1="0" x2="67.899" y2="67.899" gradientUnits="userSpaceOnUse">
<stop stop-color="#0034FC"/>
<stop offset="0.25" stop-color="#2226FD"/>
<stop offset="0.76" stop-color="#630BFE"/>
<stop offset="1" stop-color="#7C00FF"/>
</linearGradient>
</defs>
</svg>
